<?xml version="1.0" encoding="utf-8" ?>
<svg xmlns="http://www.w3.org/2000/svg" xmlns:xlink="http://www.w3.org/1999/xlink" width="1611" height="1609">
	<path fill="#929191" transform="scale(1.533 1.533)" d="M175.766 394.407C187.345 393.387 199.531 394.108 211.173 394.075Q243.048 393.748 274.921 394.174C273.673 402.7 274.468 412.307 274.472 420.933L274.512 472.858Q274.154 567.19 275.053 661.522C262.147 661.321 249.271 661.743 236.371 661.874L182.864 661.985C162.43 661.997 141.784 662.74 121.674 658.58C99.804 652.938 78.68 642.263 62.2851 626.594C34.9745 600.493 19.7781 566.631 19.07 528.789C18.4383 495.025 32.5192 459.657 56.0474 435.377C77.7119 413.02 106.494 397.929 137.649 395.082C150.231 393.932 163.129 394.628 175.766 394.407Z"/>
	<path fill="#004FD8" transform="scale(1.533 1.533)" d="M307.341 393.304C333.881 392.834 360.499 393.244 387.046 393.265C410.448 393.284 438.065 391.69 460.903 396.484C483.356 401.198 506.008 415.111 522.608 430.564Q523.797 431.678 524.958 432.82Q526.12 433.963 527.253 435.133Q528.386 436.304 529.49 437.502Q530.594 438.701 531.667 439.926Q532.741 441.151 533.785 442.402Q534.829 443.653 535.841 444.929Q536.854 446.206 537.834 447.507Q538.815 448.807 539.764 450.132Q540.712 451.457 541.628 452.804Q542.543 454.152 543.426 455.521Q544.308 456.891 545.156 458.282Q546.004 459.673 546.818 461.084Q547.632 462.496 548.411 463.927Q549.19 465.357 549.933 466.807Q550.677 468.257 551.384 469.724Q552.092 471.192 552.763 472.676Q553.434 474.161 554.069 475.661Q554.703 477.162 555.301 478.678Q555.898 480.193 556.458 481.723Q557.018 483.253 557.54 484.796Q558.063 486.34 558.547 487.895Q559.031 489.451 559.477 491.018Q559.922 492.585 560.329 494.163Q560.736 495.74 561.104 497.327Q561.473 498.914 561.802 500.51Q562.131 502.105 562.42 503.709Q562.71 505.312 562.96 506.922Q563.21 508.532 563.42 510.147Q563.631 511.763 563.802 513.383Q563.972 515.003 564.103 516.627Q564.234 518.251 564.324 519.878Q564.415 521.505 564.466 523.133Q564.512 524.604 564.526 526.075Q564.54 527.546 564.522 529.018Q564.504 530.489 564.455 531.96Q564.405 533.43 564.324 534.899Q564.243 536.369 564.13 537.836Q564.017 539.303 563.873 540.767Q563.728 542.231 563.552 543.692Q563.376 545.153 563.168 546.61Q562.961 548.067 562.722 549.518Q562.483 550.97 562.213 552.417Q561.942 553.863 561.641 555.303Q561.339 556.744 561.007 558.177Q560.675 559.61 560.311 561.036Q559.948 562.462 559.554 563.88Q559.16 565.297 558.736 566.706Q558.311 568.115 557.856 569.515Q557.402 570.914 556.917 572.303Q556.432 573.692 555.917 575.071Q555.402 576.449 554.858 577.816Q554.314 579.183 553.74 580.538Q553.166 581.893 552.563 583.235Q551.96 584.578 551.329 585.907Q550.697 587.235 550.037 588.55Q549.376 589.865 548.688 591.166Q548 592.466 547.283 593.752Q546.567 595.037 545.823 596.306Q545.079 597.576 544.308 598.829Q543.537 600.082 542.739 601.318Q541.941 602.555 541.116 603.773Q540.292 604.992 539.441 606.193Q538.59 607.393 537.714 608.575Q536.838 609.757 535.936 610.92C532.431 615.436 528.357 619.558 524.445 623.721Q522.033 626.299 519.503 628.761C513.866 634.153 507.327 638.391 500.75 642.532C462.283 666.75 424.601 662.532 381.49 662.542C356.829 662.547 332.088 663.02 307.439 662.469Q308.344 568.915 307.784 475.358L307.464 416.759C307.408 410.179 306.163 399.464 307.341 393.304Z"/>
	<path fill="#004FD8" transform="scale(1.533 1.533)" d="M523.173 30.4897C560.063 28.163 598.75 39.9477 629.066 60.8078C672.013 90.3588 699.305 133.901 705.805 185.706C707.744 201.16 707.22 217.245 707.215 232.814L707.122 297.475L707.054 326.246C707.028 333.974 706.515 342.09 707.978 349.697L708.136 350.5C742.528 351.009 777.009 350.443 811.411 350.4C836.982 350.369 864.222 348.887 889.355 354.407C894.658 355.571 899.796 357.439 904.918 359.214C924.511 365.999 941.868 374.858 958.314 387.566Q960.028 388.868 961.71 390.211Q963.391 391.555 965.039 392.939Q966.687 394.324 968.3 395.749Q969.913 397.174 971.49 398.639Q973.068 400.103 974.608 401.606Q976.149 403.109 977.652 404.65Q979.155 406.19 980.62 407.768Q982.084 409.345 983.509 410.958Q984.934 412.571 986.319 414.219Q987.704 415.866 989.047 417.548Q990.391 419.229 991.693 420.943Q992.995 422.658 994.253 424.403Q995.512 426.149 996.728 427.926Q997.943 429.702 999.114 431.508Q1000.29 433.314 1001.41 435.148Q1002.54 436.982 1003.62 438.844Q1004.7 440.705 1005.73 442.593Q1006.77 444.481 1007.75 446.394Q1008.74 448.306 1009.68 450.243Q1010.62 452.179 1011.51 454.138Q1012.4 456.097 1013.25 458.078Q1014.09 460.058 1014.88 462.059Q1015.68 464.06 1016.42 466.08Q1017.16 468.1 1017.86 470.137Q1018.55 472.175 1019.19 474.229Q1019.84 476.283 1020.43 478.352Q1021.02 480.422 1021.56 482.505Q1022.1 484.588 1022.59 486.684Q1023.08 488.78 1023.52 490.888Q1023.95 492.995 1024.34 495.113Q1024.72 497.231 1025.06 499.357Q1025.39 501.484 1025.67 503.618C1031.5 550.828 1019.7 599.469 990.121 637.139Q988.802 638.838 987.441 640.503Q986.08 642.169 984.68 643.801Q983.279 645.433 981.838 647.031Q980.398 648.628 978.919 650.189Q977.44 651.751 975.923 653.276Q974.406 654.801 972.853 656.289Q971.299 657.776 969.71 659.225Q968.12 660.674 966.496 662.084Q964.872 663.494 963.213 664.863Q961.555 666.233 959.864 667.561Q958.172 668.89 956.449 670.177Q954.726 671.464 952.971 672.708Q951.217 673.953 949.433 675.154Q947.649 676.355 945.836 677.512Q944.023 678.67 942.182 679.782Q940.341 680.895 938.474 681.962Q936.607 683.029 934.714 684.05Q932.821 685.071 930.903 686.046Q928.986 687.021 927.046 687.948Q925.105 688.876 923.142 689.755Q921.18 690.635 919.196 691.467Q917.213 692.298 915.209 693.081Q913.206 693.864 911.184 694.597Q909.162 695.331 907.123 696.015Q905.084 696.699 903.029 697.333Q900.973 697.966 898.903 698.55Q896.833 699.133 894.749 699.666Q892.665 700.199 890.569 700.68Q888.473 701.162 886.366 701.592Q884.258 702.022 882.141 702.401Q880.024 702.779 877.898 703.106Q875.772 703.432 873.639 703.707C854.993 706.046 836.191 705.612 817.441 705.599L755.157 705.538C740.841 705.522 721.369 704.385 707.716 706.154L706.849 706.27Q707.341 752.397 707.191 798.527C707.23 828.32 708.82 858.817 702.922 888.193C700.434 900.588 695.267 913.408 689.929 924.858Q688.999 926.806 688.022 928.731Q687.045 930.656 686.022 932.557Q684.998 934.457 683.929 936.332Q682.859 938.208 681.744 940.056Q680.628 941.904 679.469 943.725Q678.309 945.545 677.104 947.337Q675.9 949.129 674.653 950.891Q673.406 952.652 672.116 954.383Q670.826 956.114 669.494 957.813Q668.162 959.512 666.789 961.178Q665.416 962.843 664.002 964.475Q662.589 966.107 661.137 967.704Q659.684 969.301 658.193 970.862Q656.702 972.422 655.173 973.946Q653.644 975.47 652.078 976.957Q650.513 978.443 648.911 979.891Q647.31 981.338 645.674 982.746Q644.037 984.154 642.367 985.522Q640.697 986.889 638.994 988.216Q637.291 989.542 635.556 990.827Q633.821 992.112 632.055 993.353Q630.29 994.595 628.494 995.793Q626.698 996.992 624.874 998.146Q623.05 999.3 621.198 1000.41Q619.346 1001.52 617.468 1002.58Q615.589 1003.65 613.686 1004.66Q611.782 1005.68 609.854 1006.65Q607.926 1007.62 605.974 1008.55Q604.023 1009.47 602.05 1010.35Q600.077 1011.22 598.083 1012.05Q596.089 1012.87 594.076 1013.65Q592.062 1014.43 590.03 1015.16C569.303 1022.02 551.853 1024.99 530.041 1025.02C482.318 1025.07 437.949 1007.9 404.037 973.807Q399.385 969.039 395.094 963.943Q390.804 958.848 386.897 953.452Q382.991 948.056 379.49 942.388Q375.988 936.721 372.911 930.813C348.998 885.128 352.197 853.239 352.153 803.516L352.109 706.215C372.932 706.004 393.79 706.513 414.62 706.496C426.648 706.487 438.828 706.663 450.793 705.327Q452.672 705.117 454.545 704.867Q456.419 704.617 458.287 704.329Q460.155 704.04 462.017 703.712Q463.879 703.384 465.733 703.018Q467.588 702.651 469.434 702.245Q471.28 701.84 473.118 701.396Q474.955 700.952 476.783 700.47Q478.611 699.987 480.428 699.467Q482.245 698.946 484.051 698.388Q485.857 697.83 487.651 697.234Q489.445 696.638 491.226 696.004Q493.007 695.371 494.774 694.7Q496.542 694.029 498.294 693.322Q500.047 692.615 501.785 691.871Q503.523 691.127 505.245 690.346Q506.967 689.566 508.672 688.75Q510.377 687.934 512.065 687.083Q513.752 686.231 515.422 685.345Q517.091 684.458 518.742 683.536Q520.392 682.615 522.023 681.659Q523.654 680.704 525.265 679.714Q526.875 678.724 528.465 677.701Q530.054 676.678 531.622 675.622Q533.19 674.566 534.735 673.477Q536.28 672.388 537.803 671.267Q539.325 670.146 540.823 668.994Q542.322 667.842 543.795 666.658Q545.269 665.474 546.718 664.26Q548.167 663.046 549.59 661.802Q551.013 660.558 552.41 659.284Q553.807 658.01 555.177 656.708Q556.547 655.405 557.889 654.074C591.594 620.04 610.171 575.247 609.723 527.383C609.633 517.726 609.261 508.02 607.766 498.468C601.949 461.314 582.744 426.522 555.929 400.386C528.906 374.047 492.312 355.975 454.796 351.254C438.382 349.189 421.812 349.535 405.302 349.514Q378.688 349.438 352.075 349.778L352.276 254.724C352.341 232.248 351.328 208.617 353.654 186.287C357.37 150.623 372.801 118.168 396.026 91.1567Q398.331 88.4843 400.743 85.9068Q403.154 83.3293 405.667 80.8509Q408.179 78.3724 410.79 75.9971Q413.401 73.6218 416.104 71.3534Q418.808 69.085 421.601 66.9273Q424.395 64.7695 427.272 62.7258Q430.15 60.6822 433.107 58.7559Q436.064 56.8297 439.097 55.024Q442.13 53.2183 445.232 51.536Q448.335 49.8538 451.503 48.2977Q454.671 46.7417 457.899 45.3143Q461.127 43.887 464.409 42.5906Q467.692 41.2943 471.024 40.131Q474.356 38.9678 477.733 37.9396Q481.109 36.9113 484.524 36.0198Q487.939 35.1282 491.387 34.3747C501.898 32.1452 512.481 31.2959 523.173 30.4897Z"/>
</svg>
